# xmcd
#
# Track frame offsets:
#	150
#	12987
#	27712
#	42075
#	54062
#	67137
#	79387
#	94162
#	108462
#	123575
#	137260
#	152222
#	165622
#	179110
#	193160
#	207085
#	220997
#	236122
#	248172
#	261685
#	274572
#	288872
#
# Disc length: 4016
#
# Revision: 1
# Processed by: cddbd v1.5.1PL0 Copyright (c) Steve Scherf et al.
# Submitted via: CDex 1.51
# Normalized: r0:TDELIM( - )
#
DISCID=4f0fae16
DTITLE=Cab Calloway and Ella Fitzgerald - Two on One
DYEAR=2000
DGENRE=Jazz
TTITLE0=Ella Fitzgerald - Big Boy Blue
TTITLE1=Ella Fitzgerald - Dediated to you
TTITLE2=Ella Fitzgerald - you showed me the way
TTITLE3=Ella Fitzgerald - crying mood
TTITLE4=Ella Fitzgerald - love is the thing they say
TTITLE5=Ella Fitzgerald - all over nothing at all
TTITLE6=Ella Fitzgerald - if you should ever leave
TTITLE7=Ella Fitzgerald - everyone's young but me
TTITLE8=Ella Fitzgerald - deep in the heart of the south
TTITLE9=Ella Fitzgerald - just a simple melody
TTITLE10=Cab Calloway - minnie the moocher
TTITLE11=Cab Calloway - weakness
TTITLE12=Cab Calloway - honey dripper
TTITLE13=Cab Calloway - i'll be around
TTITLE14=Cab Calloway - hi de ho
TTITLE15=Cab Calloway - i ain't got nobody
TTITLE16=Cab Calloway - st james infirmary
TTITLE17=Cab Calloway - my gal
TTITLE18=Cab Calloway - hey now
TTITLE19=Cab Calloway - i want to rock
TTITLE20=Cab Calloway - the calloway boogie
TTITLE21=Cab Calloway - everyone eats when they come to my house
EXTD=YEAR: 2000
EXTT0=
EXTT1=
EXTT2=
EXTT3=
EXTT4=
EXTT5=
EXTT6=
EXTT7=
EXTT8=
EXTT9=
EXTT10=
EXTT11=
EXTT12=
EXTT13=
EXTT14=
EXTT15=
EXTT16=
EXTT17=
EXTT18=
EXTT19=
EXTT20=
EXTT21=
PLAYORDER=
